<svg width="533" height="122" viewBox="0 0 533 122" fill="none" xmlns="http://www.w3.org/2000/svg">
<path d="M116.565 26.0819C115.381 18.6521 113.238 12.6039 109.276 9.00883C102.312 1.33934 86.2254 0.507554 68.7293 0.169195C65.5572 0.112801 62.3569 0.0563933 59.1425 0C38.1783 0.437048 17.2282 -0.0422959 9.00885 9.00883C-0.0422744 17.2282 0.437048 38.1783 0 59.1425C0.0986883 64.232 0.155083 69.3215 0.310165 74.2136C0.77541 89.5103 2.15704 103.045 9.02292 109.276C17.2422 118.327 38.1924 117.848 59.1566 118.285C70.7454 118.045 82.3483 118.088 91.7801 116.635C99.4073 115.465 105.611 113.322 109.29 109.276C118.341 101.057 117.862 80.1067 118.299 59.1425C118.045 47.3563 118.088 35.5842 116.565 26.0819Z" fill="white"/>
<path d="M30.4102 86.1971L53.9403 61.1725L31.8905 32.8067L33.1311 29.2116L65.4445 28.5913C71.8874 28.4221 77.8651 28.0556 83.4058 27.4775L84.3926 28.4644C84.5618 34.4139 84.9284 40.1519 85.5064 45.6785L80.1772 46.5385C79.6838 41.9988 78.4854 38.8408 76.5822 37.0644C74.6789 35.288 71.5491 34.3998 67.1645 34.3998H44.1419L62.4697 57.5634L62.3429 60.0447L41.4068 82.2213H68.8845C72.0284 82.2213 74.3969 81.9112 76.0041 81.2908C77.6113 80.6705 78.852 79.5427 79.7261 77.8791C80.6002 76.2295 81.4038 73.6214 82.1369 70.0827L87.4661 69.5892L87.8326 69.9558C86.6765 76.3987 85.9294 82.7571 85.6051 89.0308L83.9979 90.638L40.42 90.1446L32.0033 90.7649L30.4102 86.1971Z" fill="#3B95B8"/>
<path d="M187.507 83.6872C194.514 85.6469 199.491 88.1 202.423 91.0748C205.356 94.0495 206.822 98.0675 206.822 103.129C206.822 105.074 206.512 106.949 205.892 108.726C205.271 110.502 204.496 112.166 203.565 113.717C202.635 115.267 201.563 116.706 200.365 118.045C199.167 119.37 197.997 120.484 196.84 121.372C195.6 120.301 194.091 119.046 192.315 117.58C190.539 116.113 189.03 114.845 187.789 113.787C189.115 112.462 190.271 111.08 191.258 109.656C192.23 108.232 192.724 106.597 192.724 104.736C192.724 102.424 191.723 100.633 189.735 99.3505C187.733 98.0675 185.054 96.9678 181.685 96.0938L174.1 94.0918C169.222 92.8511 164.992 91.258 161.454 89.2983C157.901 87.3528 154.968 84.9561 152.67 82.1082C150.358 79.2604 148.652 75.9754 147.539 72.2535C146.425 68.5174 145.875 64.2174 145.875 59.3394C145.875 54.4614 146.538 49.823 147.877 45.4244C149.202 41.0257 151.246 37.1487 153.996 33.7792C156.745 30.4097 160.227 27.7169 164.443 25.729C168.658 23.727 173.606 22.7261 179.288 22.7261C187.282 22.7261 193.795 24.6575 198.856 28.5205C203.918 32.3834 207.062 38.5726 208.316 47.1021L193.541 49.3719C192.738 44.5785 191.229 40.9834 189.016 38.5867C186.802 36.19 183.419 34.9916 178.893 34.9916C175.778 34.9916 173.141 35.6401 170.97 36.9231C168.799 38.206 166.994 39.9401 165.584 42.1113C164.161 44.2824 163.145 46.8201 162.525 49.6962C161.905 52.5863 161.595 55.5752 161.595 58.6768C161.595 62.6666 162.032 65.9797 162.92 68.602C163.808 71.2243 165.049 73.3814 166.642 75.0591C168.235 76.7509 170.096 78.0761 172.239 79.0489C174.368 80.0217 176.68 80.8253 179.161 81.4456L187.507 83.6872Z" fill="white"/>
<path d="M279.372 94.0639H265.528V45.7349L233.313 94.0639H219.863V24.0234H233.708V72.4935L265.937 24.0234H279.386V94.0639H279.372Z" fill="white"/>
<path d="M344.083 24.0234V36.8106H311.332V94.0639H296.148V24.0234H344.083Z" fill="white"/>
<path d="M354.332 24.0234H371.377L393.61 78.2174L416.379 24.0234H432.353V94.0639H418.635V47.7368L398.658 94.078H387.21L368.036 47.7368V94.078H354.318V24.0234H354.332Z" fill="white"/>
<path d="M512.121 60.383L516.378 74.7633C517.351 78.1328 518.394 80.4872 519.508 81.8266C520.622 83.1518 522.328 83.8285 524.64 83.8285C525.528 83.8285 526.445 83.7157 527.375 83.4902C528.306 83.2646 529.123 83.0249 529.842 82.757L532.507 93.6692C530.914 94.3741 529.152 94.9521 527.248 95.4033C525.345 95.8403 523.498 96.0659 521.722 96.0659C519.945 96.0659 518.296 95.8826 516.801 95.5302C515.293 95.1777 513.897 94.5292 512.6 93.5987C511.317 92.6682 510.133 91.3993 509.076 89.8062C508.004 88.2131 507.074 86.1266 506.284 83.5466L503.225 74.2276C502.153 76.8076 500.898 79.4017 499.432 82.024C497.966 84.6462 496.218 87.0007 494.174 89.0731C492.129 91.1597 489.719 92.8656 486.913 94.2049C484.121 95.5302 480.851 96.2069 477.129 96.2069C472.067 96.2069 467.626 95.2905 463.82 93.4718C459.999 91.6531 456.827 89.1436 454.303 85.9433C451.78 82.743 449.891 78.9505 448.65 74.5518C447.409 70.1532 446.789 65.3879 446.789 60.242C446.789 54.645 447.452 49.5414 448.791 44.9313C450.116 40.3211 452.146 36.3595 454.853 33.0746C457.56 29.7897 460.93 27.2378 464.976 25.4192C469.008 23.6005 473.745 22.6841 479.159 22.6841C482.712 22.6841 485.813 23.1775 488.478 24.1503C491.142 25.1231 493.469 26.5893 495.471 28.549C497.473 30.5087 499.221 32.9054 500.729 35.7391C502.238 38.587 503.662 41.8578 504.987 45.5939L512.304 24.827H527.22L512.121 60.383ZM478.158 83.9413C480.371 83.9413 482.373 83.4761 484.15 82.5456C485.926 81.6151 487.59 80.1912 489.14 78.2879C490.691 76.3846 492.228 73.8892 493.737 70.8299C495.245 67.7705 496.796 64.105 498.389 59.8473C497.148 55.5896 495.922 51.9099 494.723 48.7942C493.525 45.6926 492.172 43.1126 490.663 41.0683C489.155 39.0241 487.449 37.5014 485.531 36.4723C483.628 35.4572 481.386 34.9355 478.806 34.9355C473.209 34.9355 469.107 37.2054 466.484 41.7309C463.862 46.2565 462.551 52.4316 462.551 60.242C462.551 63.6115 462.889 66.7414 463.552 69.6315C464.215 72.5217 465.187 75.0171 466.484 77.16C467.767 79.2889 469.389 80.9525 471.348 82.1508C473.322 83.3492 475.592 83.9413 478.158 83.9413Z" fill="white"/>
</svg>
